<svg width="99" height="21" viewBox="0 0 99 21" fill="none" xmlns="http://www.w3.org/2000/svg">
<rect x="0.799988" width="98" height="21" rx="10.5" fill="white"/>
<g clip-path="url(#clip0_402_178)">
<path d="M18.15 10.75L17.1503 11.75L16.15 10.75M17.2725 11.5C17.2907 11.3358 17.3 11.169 17.3 11C17.3 8.51472 15.2853 6.5 12.8 6.5C10.3147 6.5 8.29999 8.51472 8.29999 11C8.29999 13.4853 10.3147 15.5 12.8 15.5C14.2136 15.5 15.475 14.8482 16.3 13.8287M12.8 8.5V11L14.3 12" stroke="#6F4FF2" stroke-linecap="round" stroke-linejoin="round"/>
</g>
<path d="M25.7034 15V14.233L28.5841 11.0795C28.9221 10.7102 29.2006 10.3892 29.4193 10.1165C29.6381 9.84091 29.8 9.58239 29.9051 9.34091C30.0131 9.09659 30.067 8.84091 30.067 8.57386C30.067 8.26705 29.9932 8.00142 29.8454 7.77699C29.7006 7.55256 29.5017 7.37926 29.2489 7.2571C28.996 7.13494 28.7119 7.07386 28.3966 7.07386C28.0614 7.07386 27.7687 7.14347 27.5187 7.28267C27.2716 7.41903 27.0798 7.6108 26.9435 7.85795C26.8099 8.10511 26.7432 8.39489 26.7432 8.72727H25.7375C25.7375 8.21591 25.8554 7.76705 26.0912 7.38068C26.327 6.99432 26.648 6.69318 27.0542 6.47727C27.4633 6.26136 27.9221 6.15341 28.4307 6.15341C28.942 6.15341 29.3952 6.26136 29.79 6.47727C30.1849 6.69318 30.4946 6.98437 30.719 7.35085C30.9435 7.71733 31.0557 8.125 31.0557 8.57386C31.0557 8.89489 30.9974 9.20881 30.881 9.51562C30.7673 9.8196 30.5685 10.1591 30.2844 10.5341C30.0031 10.9062 29.6125 11.3608 29.1125 11.8977L27.1523 13.9943V14.0625H31.2091V15H25.7034ZM33.8717 11.0625V15H32.8661V6.27273H33.8717V9.47727H33.957C34.1104 9.1392 34.3405 8.87074 34.6473 8.67188C34.957 8.47017 35.3689 8.36932 35.8831 8.36932C36.3291 8.36932 36.7198 8.45881 37.055 8.63778C37.3902 8.81392 37.6502 9.08523 37.8348 9.4517C38.0223 9.81534 38.1161 10.2784 38.1161 10.8409V15H37.1104V10.9091C37.1104 10.3892 36.9754 9.98722 36.7056 9.70312C36.4385 9.41619 36.0678 9.27273 35.5933 9.27273C35.2638 9.27273 34.9683 9.34233 34.707 9.48153C34.4485 9.62074 34.2439 9.82386 34.0933 10.0909C33.9456 10.358 33.8717 10.6818 33.8717 11.0625ZM40.5689 15.0682C40.3586 15.0682 40.1782 14.9929 40.0277 14.8423C39.8771 14.6918 39.8018 14.5114 39.8018 14.3011C39.8018 14.0909 39.8771 13.9105 40.0277 13.7599C40.1782 13.6094 40.3586 13.5341 40.5689 13.5341C40.7791 13.5341 40.9595 13.6094 41.1101 13.7599C41.2606 13.9105 41.3359 14.0909 41.3359 14.3011C41.3359 14.4403 41.3004 14.5682 41.2294 14.6847C41.1612 14.8011 41.0689 14.8949 40.9524 14.9659C40.8388 15.0341 40.7109 15.0682 40.5689 15.0682ZM40.5689 10.2102C40.3586 10.2102 40.1782 10.1349 40.0277 9.98438C39.8771 9.83381 39.8018 9.65341 39.8018 9.44318C39.8018 9.23295 39.8771 9.05256 40.0277 8.90199C40.1782 8.75142 40.3586 8.67614 40.5689 8.67614C40.7791 8.67614 40.9595 8.75142 41.1101 8.90199C41.2606 9.05256 41.3359 9.23295 41.3359 9.44318C41.3359 9.58239 41.3004 9.71023 41.2294 9.8267C41.1612 9.94318 41.0689 10.0369 40.9524 10.108C40.8388 10.1761 40.7109 10.2102 40.5689 10.2102ZM43.0036 15V14.233L45.8842 11.0795C46.2223 10.7102 46.5007 10.3892 46.7195 10.1165C46.9382 9.84091 47.1001 9.58239 47.2053 9.34091C47.3132 9.09659 47.3672 8.84091 47.3672 8.57386C47.3672 8.26705 47.2933 8.00142 47.1456 7.77699C47.0007 7.55256 46.8018 7.37926 46.549 7.2571C46.2962 7.13494 46.0121 7.07386 45.6967 7.07386C45.3615 7.07386 45.0689 7.14347 44.8189 7.28267C44.5717 7.41903 44.38 7.6108 44.2436 7.85795C44.1101 8.10511 44.0433 8.39489 44.0433 8.72727H43.0376C43.0376 8.21591 43.1555 7.76705 43.3913 7.38068C43.6271 6.99432 43.9482 6.69318 44.3544 6.47727C44.7635 6.26136 45.2223 6.15341 45.7308 6.15341C46.2422 6.15341 46.6953 6.26136 47.0902 6.47727C47.4851 6.69318 47.7947 6.98437 48.0192 7.35085C48.2436 7.71733 48.3558 8.125 48.3558 8.57386C48.3558 8.89489 48.2976 9.20881 48.1811 9.51562C48.0675 9.8196 47.8686 10.1591 47.5845 10.5341C47.3033 10.9062 46.9126 11.3608 46.4126 11.8977L44.4524 13.9943V14.0625H48.5092V15H43.0036ZM49.7571 13.2102V12.3409L53.5924 6.27273H54.223V7.61932H53.7969L50.8992 12.2045V12.2727H56.064V13.2102H49.7571ZM53.8651 15V12.946V12.5412V6.27273H54.8708V15H53.8651ZM57.5579 15V8.45455H58.5295V9.47727H58.6148C58.7511 9.12784 58.9713 8.85653 59.2753 8.66335C59.5792 8.46733 59.9443 8.36932 60.3704 8.36932C60.8023 8.36932 61.1616 8.46733 61.4486 8.66335C61.7383 8.85653 61.9642 9.12784 62.1261 9.47727H62.1943C62.3619 9.1392 62.6133 8.87074 62.9486 8.67188C63.2838 8.47017 63.6858 8.36932 64.1545 8.36932C64.7398 8.36932 65.2185 8.55256 65.5906 8.91903C65.9628 9.28267 66.1489 9.84943 66.1489 10.6193V15H65.1432V10.6193C65.1432 10.1364 65.0111 9.79119 64.7469 9.58381C64.4827 9.37642 64.1716 9.27273 63.8136 9.27273C63.3534 9.27273 62.9969 9.41193 62.744 9.69034C62.4912 9.96591 62.3648 10.3153 62.3648 10.7386V15H61.342V10.517C61.342 10.1449 61.2213 9.84517 60.9798 9.6179C60.7383 9.38778 60.4273 9.27273 60.0466 9.27273C59.7852 9.27273 59.5409 9.34233 59.3136 9.48153C59.0892 9.62074 58.9074 9.81392 58.7682 10.0611C58.6318 10.3054 58.5636 10.5881 58.5636 10.9091V15H57.5579ZM68.6006 15.0682C68.3904 15.0682 68.21 14.9929 68.0594 14.8423C67.9088 14.6918 67.8335 14.5114 67.8335 14.3011C67.8335 14.0909 67.9088 13.9105 68.0594 13.7599C68.21 13.6094 68.3904 13.5341 68.6006 13.5341C68.8108 13.5341 68.9912 13.6094 69.1418 13.7599C69.2923 13.9105 69.3676 14.0909 69.3676 14.3011C69.3676 14.4403 69.3321 14.5682 69.2611 14.6847C69.1929 14.8011 69.1006 14.8949 68.9841 14.9659C68.8705 15.0341 68.7426 15.0682 68.6006 15.0682ZM68.6006 10.2102C68.3904 10.2102 68.21 10.1349 68.0594 9.98438C67.9088 9.83381 67.8335 9.65341 67.8335 9.44318C67.8335 9.23295 67.9088 9.05256 68.0594 8.90199C68.21 8.75142 68.3904 8.67614 68.6006 8.67614C68.8108 8.67614 68.9912 8.75142 69.1418 8.90199C69.2923 9.05256 69.3676 9.23295 69.3676 9.44318C69.3676 9.58239 69.3321 9.71023 69.2611 9.8267C69.1929 9.94318 69.1006 10.0369 68.9841 10.108C68.8705 10.1761 68.7426 10.2102 68.6006 10.2102ZM73.8819 15.1193C73.2398 15.1193 72.6929 14.9446 72.2412 14.5952C71.7895 14.2429 71.4444 13.733 71.2057 13.0653C70.9671 12.3949 70.8478 11.5852 70.8478 10.6364C70.8478 9.69318 70.9671 8.88778 71.2057 8.22017C71.4472 7.54972 71.7938 7.03835 72.2455 6.68608C72.7 6.33097 73.2455 6.15341 73.8819 6.15341C74.5182 6.15341 75.0623 6.33097 75.514 6.68608C75.9685 7.03835 76.3151 7.54972 76.5537 8.22017C76.7952 8.88778 76.916 9.69318 76.916 10.6364C76.916 11.5852 76.7966 12.3949 76.558 13.0653C76.3194 13.733 75.9742 14.2429 75.5225 14.5952C75.0708 14.9446 74.5239 15.1193 73.8819 15.1193ZM73.8819 14.1818C74.5182 14.1818 75.0125 13.875 75.3648 13.2614C75.7171 12.6477 75.8932 11.7727 75.8932 10.6364C75.8932 9.88068 75.8123 9.23722 75.6503 8.70597C75.4912 8.17472 75.2611 7.76989 74.96 7.49148C74.6617 7.21307 74.3023 7.07386 73.8819 7.07386C73.2512 7.07386 72.7583 7.38494 72.4032 8.0071C72.0481 8.62642 71.8705 9.50284 71.8705 10.6364C71.8705 11.392 71.95 12.0341 72.1091 12.5625C72.2682 13.0909 72.4969 13.4929 72.7952 13.7685C73.0964 14.044 73.4586 14.1818 73.8819 14.1818ZM78.2107 13.2102V12.3409L82.046 6.27273H82.6766V7.61932H82.2505L79.3528 12.2045V12.2727H84.5175V13.2102H78.2107ZM82.3187 15V12.946V12.5412V6.27273H83.3244V15H82.3187ZM90.6479 9.92045L89.7445 10.1761C89.6877 10.0256 89.6039 9.87926 89.4931 9.73722C89.3851 9.59233 89.2374 9.47301 89.0499 9.37926C88.8624 9.28551 88.6223 9.23864 88.3297 9.23864C87.9291 9.23864 87.5953 9.33097 87.3283 9.51562C87.0641 9.69744 86.932 9.92898 86.932 10.2102C86.932 10.4602 87.0229 10.6577 87.2047 10.8026C87.3865 10.9474 87.6706 11.0682 88.057 11.1648L89.0286 11.4034C89.6138 11.5455 90.0499 11.7628 90.3368 12.0554C90.6238 12.3452 90.7672 12.7187 90.7672 13.1761C90.7672 13.5511 90.6593 13.8864 90.4434 14.1818C90.2303 14.4773 89.932 14.7102 89.5485 14.8807C89.1649 15.0511 88.7189 15.1364 88.2104 15.1364C87.5428 15.1364 86.9902 14.9915 86.5527 14.7017C86.1152 14.4119 85.8382 13.9886 85.7218 13.4318L86.6763 13.1932C86.7672 13.5455 86.9391 13.8097 87.1919 13.9858C87.4476 14.1619 87.7814 14.25 88.1934 14.25C88.6621 14.25 89.0343 14.1506 89.3098 13.9517C89.5882 13.75 89.7274 13.5085 89.7274 13.2273C89.7274 13 89.6479 12.8097 89.4888 12.6562C89.3297 12.5 89.0854 12.3835 88.7559 12.3068L87.6649 12.0511C87.0655 11.9091 86.6252 11.6889 86.3439 11.3906C86.0655 11.0895 85.9263 10.7131 85.9263 10.2614C85.9263 9.89205 86.03 9.56534 86.2374 9.28125C86.4476 8.99716 86.7331 8.77415 87.0939 8.61222C87.4576 8.45028 87.8695 8.36932 88.3297 8.36932C88.9774 8.36932 89.486 8.51136 89.8553 8.79545C90.2274 9.07955 90.4916 9.45455 90.6479 9.92045Z" fill="#6F4FF2"/>
<defs>
<clipPath id="clip0_402_178">
<rect width="12" height="12" fill="white" transform="translate(6.79999 5)"/>
</clipPath>
</defs>
</svg>
